<svg xmlns="http://www.w3.org/2000/svg" viewBox="0 0 128 128" role="img" aria-label="SMCD Dispatch">
  <defs>
    <linearGradient id="g" x1="0%" y1="0%" x2="100%" y2="100%">
      <stop offset="0%" style="stop-color:#2563eb"/>
      <stop offset="100%" style="stop-color:#1e3a5f"/>
    </linearGradient>
  </defs>
  <circle cx="64" cy="64" r="58" fill="#0d2137" stroke="#2563eb" stroke-width="4"/>
  <circle cx="64" cy="64" r="42" fill="none" stroke="#dc3545" stroke-width="3" stroke-dasharray="8 6"/>
  <path fill="url(#g)" d="M64 28c-8 0-14 6-14 14v8h-6c-4 0-8 4-8 8v28c0 4 4 8 8 8h40c4 0 8-4 8-8V58c0-4-4-8-8-8h-6v-8c0-8-6-14-14-14zm0 8c3.3 0 6 2.7 6 6v8H58v-8c0-3.3 2.7-6 6-6z"/>
  <rect x="52" y="70" width="24" height="6" rx="2" fill="#dc3545"/>
  <text x="64" y="108" text-anchor="middle" fill="#93c5fd" font-family="Arial,sans-serif" font-size="14" font-weight="bold">911</text>
</svg>
